<?xml version="1.0" encoding="UTF-8"?>
<svg version="1.1" xmlns="http://www.w3.org/2000/svg" width="180" height="30">
<path d="M0 0 C8.58 0 17.16 0 26 0 C26.0825 3.526875 26.165 7.05375 26.25 10.6875 C26.28641602 11.79053467 26.32283203 12.89356934 26.36035156 14.0300293 C26.44232035 21.25716476 26.44232035 21.25716476 24.16015625 25.08984375 C20.45006828 28.37055445 17.65019307 30 12.625 30 C8.1825892 28.77450737 4.62604332 26.8389266 1 24 C-0.25248502 21.49502996 -0.11374406 19.79146726 -0.09765625 16.9921875 C-0.09515869 16.1038623 -0.09266113 15.21553711 -0.09008789 14.30029297 C-0.08098389 13.16994629 -0.07187988 12.03959961 -0.0625 10.875 C-0.041875 7.28625 -0.02125 3.6975 0 0 Z " fill="#8C3026" transform="translate(0,0)"/>
<path d="M0 0 C0.79921875 0.11085938 1.5984375 0.22171875 2.421875 0.3359375 C3.32679687 0.47902344 3.32679687 0.47902344 4.25 0.625 C4.25 2.275 4.25 3.925 4.25 5.625 C3.59 5.625 2.93 5.625 2.25 5.625 C1.59 4.635 0.93 3.645 0.25 2.625 C-1.4 2.955 -3.05 3.285 -4.75 3.625 C-6.58695434 7.96427969 -6.58695434 7.96427969 -5.875 12.5 C-5.50375 13.20125 -5.1325 13.9025 -4.75 14.625 C-0.53026729 14.82126664 2.52904768 14.69742914 6.25 12.625 C7.93150027 9.79718152 7.93150027 9.79718152 9.0625 6.5 C9.48144531 5.40429688 9.90039062 4.30859375 10.33203125 3.1796875 C10.63496094 2.33664062 10.93789063 1.49359375 11.25 0.625 C12.24 0.625 13.23 0.625 14.25 0.625 C16.23 5.575 18.21 10.525 20.25 15.625 C21.24 15.625 22.23 15.625 23.25 15.625 C23.10930804 13.49965341 22.96229079 11.37472471 22.8125 9.25 C22.73128906 8.06664062 22.65007812 6.88328125 22.56640625 5.6640625 C22.43915064 2.70981099 22.43915064 2.70981099 21.25 0.625 C23.23 0.625 25.21 0.625 27.25 0.625 C31.25 7.25 31.25 7.25 31.25 10.625 C31.91 10.625 32.57 10.625 33.25 10.625 C33.45496094 9.98691406 33.65992188 9.34882813 33.87109375 8.69140625 C34.14050781 7.86511719 34.40992188 7.03882813 34.6875 6.1875 C34.95433594 5.36378906 35.22117188 4.54007813 35.49609375 3.69140625 C36.25 1.625 36.25 1.625 37.25 0.625 C39.24958364 0.58419217 41.25045254 0.58245644 43.25 0.625 C42.59 0.955 41.93 1.285 41.25 1.625 C41.39063135 3.91699177 41.53765943 6.20859186 41.6875 8.5 C41.76871094 9.77617187 41.84992188 11.05234375 41.93359375 12.3671875 C42.04206027 15.50800152 42.04206027 15.50800152 43.25 17.625 C40.61 17.625 37.97 17.625 35.25 17.625 C35.58 16.965 35.91 16.305 36.25 15.625 C36.289992 13.62539988 36.29346799 11.62452758 36.25 9.625 C34.93 12.265 33.61 14.905 32.25 17.625 C31.59 17.625 30.93 17.625 30.25 17.625 C28.93 14.655 27.61 11.685 26.25 8.625 C25.98067479 13.27552872 25.98067479 13.27552872 27.25 17.625 C22.63 17.625 18.01 17.625 13.25 17.625 C13.58 15.645 13.91 13.665 14.25 11.625 C12.6 11.625 10.95 11.625 9.25 11.625 C9.58 13.605 9.91 15.585 10.25 17.625 C8.7340625 17.5940625 8.7340625 17.5940625 7.1875 17.5625 C3.28378609 17.52321476 3.28378609 17.52321476 -0.375 18.25 C-3.97287929 18.64976437 -5.60785084 18.33073811 -8.75 16.625 C-11.60833286 13.76666714 -11.55075773 11.60984539 -11.75 7.625 C-10.59997331 4.4170308 -9.82101911 2.32749641 -6.93359375 0.43359375 C-4.33895356 -0.52721219 -2.72155698 -0.40022897 0 0 Z M11.25 6.625 C10.92 7.615 10.59 8.605 10.25 9.625 C10.91 9.625 11.57 9.625 12.25 9.625 C11.92 8.635 11.59 7.645 11.25 6.625 Z " fill="#000000" transform="translate(42.75,4.375)"/>
<path d="M0 0 C1.98 0 3.96 0 6 0 C6 2.97 6 5.94 6 9 C8.97 9 11.94 9 15 9 C15 10.98 15 12.96 15 15 C11.7 15 8.4 15 5 15 C5.33 13.35 5.66 11.7 6 10 C4.02 10 2.04 10 0 10 C0.66 11.32 1.32 12.64 2 14 C2.66 14 3.32 14 4 14 C4 14.66 4 15.32 4 16 C4.66 16 5.32 16 6 16 C6 19.63 6 23.26 6 27 C4.35 27.33 2.7 27.66 1 28 C0 27 0 27 -0.09765625 24.27734375 C-0.08605469 23.17519531 -0.07445312 22.07304687 -0.0625 20.9375 C-0.05347656 19.83277344 -0.04445313 18.72804688 -0.03515625 17.58984375 C-0.02355469 16.73519531 -0.01195312 15.88054688 0 15 C-2.97 15 -5.94 15 -9 15 C-9 13.02 -9 11.04 -9 9 C-6.03 9 -3.06 9 0 9 C0 6.03 0 3.06 0 0 Z " fill="#BA9393" transform="translate(10,1)"/>
<path d="M0 0 C1.95803507 -0.05389087 3.91648909 -0.09274217 5.875 -0.125 C7.51082031 -0.15980469 7.51082031 -0.15980469 9.1796875 -0.1953125 C12 0 12 0 14 2 C14.20786098 4.63290579 14.15588557 6.5713147 13.25 9.0625 C13.12625 10.0215625 13.12625 10.0215625 13 11 C14.79191032 13.29215045 14.79191032 13.29215045 17 15 C17.33 15 17.66 15 18 15 C18.02693575 12.87506859 18.04636628 10.75004088 18.0625 8.625 C18.07410156 7.44164062 18.08570312 6.25828125 18.09765625 5.0390625 C18.21466593 2.08078479 18.21466593 2.08078479 17 0 C19.64 0 22.28 0 25 0 C24.67 0.66 24.34 1.32 24 2 C23.90314912 4.16490195 23.87020562 6.33293803 23.875 8.5 C23.87242188 9.6653125 23.86984375 10.830625 23.8671875 12.03125 C23.7951569 14.92930786 23.7951569 14.92930786 25 17 C12.25381166 17.92017937 12.25381166 17.92017937 9.1796875 15.6640625 C8.125 14 8.125 14 7 11 C7.33 12.98 7.66 14.96 8 17 C5.36 17 2.72 17 0 17 C0.33 16.34 0.66 15.68 1 15 C1.09685088 12.83509805 1.12979438 10.66706197 1.125 8.5 C1.12757812 7.3346875 1.13015625 6.169375 1.1328125 4.96875 C1.2048431 2.07069214 1.2048431 2.07069214 0 0 Z M6 1 C6 3.31 6 5.62 6 8 C7.32 7.34 8.64 6.68 10 6 C9.73323796 4.01508358 9.73323796 4.01508358 9 2 C8.01 1.67 7.02 1.34 6 1 Z " fill="#000000" transform="translate(103,5)"/>
<path d="M0 0 C2.14576637 -0.02685938 4.29162645 -0.04633088 6.4375 -0.0625 C7.63246094 -0.07410156 8.82742187 -0.08570313 10.05859375 -0.09765625 C13 0 13 0 14 1 C14 3.33333333 14 5.66666667 14 8 C14.33 8.33 14.66 8.66 15 9 C15.1875 11.9375 15.1875 11.9375 15 15 C13 17 13 17 9.9609375 17.1953125 C8.77757813 17.17210938 7.59421875 17.14890625 6.375 17.125 C5.18648438 17.10695313 3.99796875 17.08890625 2.7734375 17.0703125 C1.85820313 17.04710938 0.94296875 17.02390625 0 17 C0.33 16.34 0.66 15.68 1 15 C1.66 15 2.32 15 3 15 C2.88623383 12.87436897 2.75864369 10.7494739 2.625 8.625 C2.55539063 7.44164062 2.48578125 6.25828125 2.4140625 5.0390625 C2.29782654 1.89437681 2.29782654 1.89437681 0 0 Z M7 1 C7 2.98 7 4.96 7 7 C7.99 6.67 8.98 6.34 10 6 C10 4.68 10 3.36 10 2 C9.01 1.67 8.02 1.34 7 1 Z M7 9 C7 10.98 7 12.96 7 15 C8.32 14.67 9.64 14.34 11 14 C10.67 12.35 10.34 10.7 10 9 C9.01 9 8.02 9 7 9 Z " fill="#000000" transform="translate(87,5)"/>
<path d="M0 0 C2.08218362 -0.10832169 4.16599129 -0.18573541 6.25 -0.25 C7.99023438 -0.31960937 7.99023438 -0.31960937 9.765625 -0.390625 C13 0 13 0 15.38671875 1.76953125 C17.35580705 4.49192694 17.64419508 6.68873241 17.42578125 10.02734375 C17 12 17 12 15.25 15 C10.34061709 18.02115871 5.61992525 17.40334392 0 17 C0.33 16.34 0.66 15.68 1 15 C1.09685088 12.83509805 1.12979438 10.66706197 1.125 8.5 C1.12757813 7.3346875 1.13015625 6.169375 1.1328125 4.96875 C1.2048431 2.07069214 1.2048431 2.07069214 0 0 Z M6 1 C6 5.62 6 10.24 6 15 C10.86132495 14.50847518 10.86132495 14.50847518 13 12 C13.50814856 7.31790006 13.50814856 7.31790006 11.75 3.125 C9.75833849 1.71249567 9.75833849 1.71249567 6 1 Z " fill="#000000" transform="translate(130,5)"/>
<path d="M0 0 C0.79921875 0.11085938 1.5984375 0.22171875 2.421875 0.3359375 C3.32679688 0.47902344 3.32679688 0.47902344 4.25 0.625 C4.25 2.275 4.25 3.925 4.25 5.625 C3.59 5.625 2.93 5.625 2.25 5.625 C1.59 4.635 0.93 3.645 0.25 2.625 C-1.4 2.955 -3.05 3.285 -4.75 3.625 C-6.10485278 6.86159275 -6.90013706 8.8909966 -6.1875 12.375 C-4.39887581 15.17458569 -2.88863539 15.71644765 0.25 16.625 C0.25 14.975 0.25 13.325 0.25 11.625 C-0.41 11.625 -1.07 11.625 -1.75 11.625 C-1.75 10.965 -1.75 10.305 -1.75 9.625 C0.89 9.625 3.53 9.625 6.25 9.625 C6.25 10.285 6.25 10.945 6.25 11.625 C5.59 11.625 4.93 11.625 4.25 11.625 C4.25 13.605 4.25 15.585 4.25 17.625 C-0.45582406 18.58707959 -3.7229125 19.04683951 -8.25 17.1875 C-11.13331156 14.23210565 -11.71177148 12.61932903 -11.921875 8.58984375 C-11.65995404 5.59561099 -10.6837244 3.89212516 -8.75 1.625 C-5.62416303 -0.36478009 -3.63227101 -0.5341575 0 0 Z " fill="#000000" transform="translate(159.75,4.375)"/>
<path d="M0 0 C4.29 0 8.58 0 13 0 C13 1.32 13 2.64 13 4 C12.34 4 11.68 4 11 4 C11 3.34 11 2.68 11 2 C9.35 2 7.7 2 6 2 C6 3.65 6 5.3 6 7 C7.98 6.34 9.96 5.68 12 5 C12 6.98 12 8.96 12 11 C10.02 10.34 8.04 9.68 6 9 C6 10.98 6 12.96 6 15 C10.47883696 14.55296014 10.47883696 14.55296014 14 12 C14 13.65 14 15.3 14 17 C9.38 17 4.76 17 0 17 C0.33 16.34 0.66 15.68 1 15 C1.23029956 12.62876754 1.41119942 10.25258057 1.5625 7.875 C1.64628906 6.59367188 1.73007813 5.31234375 1.81640625 3.9921875 C1.90728516 2.51105469 1.90728516 2.51105469 2 1 C1.34 0.67 0.68 0.34 0 0 Z " fill="#000000" transform="translate(166,5)"/>
<path d="M0 0 C1.32 0 2.64 0 4 0 C4 2.97 4 5.94 4 9 C6.97 9 9.94 9 13 9 C13 10.98 13 12.96 13 15 C9.7 15 6.4 15 3 15 C3.33 13.35 3.66 11.7 4 10 C2.35 9.67 0.7 9.34 -1 9 C-0.67 6.03 -0.34 3.06 0 0 Z " fill="#D1C0C0" transform="translate(12,1)"/>
<path d="M0 0 C1.98 0 3.96 0 6 0 C6 1.32 6 2.64 6 4 C8.97 4.33 11.94 4.66 15 5 C15 5.33 15 5.66 15 6 C12.69 6.33 10.38 6.66 8 7 C10.475 7.99 10.475 7.99 13 9 C12.67 9.99 12.34 10.98 12 12 C12 12.66 12 13.32 12 14 C10.02 14.99 8.04 15.98 6 17 C6 13.37 6 9.74 6 6 C5.34 6 4.68 6 4 6 C4 5.34 4 4.68 4 4 C3.34 4 2.68 4 2 4 C1.67 4.66 1.34 5.32 1 6 C0.67 4.02 0.34 2.04 0 0 Z " fill="#C73932" transform="translate(10,11)"/>
<path d="M0 0 C0.33 0 0.66 0 1 0 C1.62172036 10.82829625 1.62172036 10.82829625 -0.625 15.0625 C-4.8671252 18.52318108 -8.44211783 20.49040137 -14 20 C-10.66666667 18.33333333 -7.33333333 16.66666667 -4 15 C-4.33 13.68 -4.66 12.36 -5 11 C-4.01 10.67 -3.02 10.34 -2 10 C-3.65 10 -5.3 10 -7 10 C-7.33 9.01 -7.66 8.02 -8 7 C-5.36 7 -2.72 7 0 7 C-0.2784375 5.824375 -0.2784375 5.824375 -0.5625 4.625 C-1 2 -1 2 0 0 Z " fill="#583816" transform="translate(25,10)"/>
<path d="M0 0 C0.66 0 1.32 0 2 0 C2 0.66 2 1.32 2 2 C2.66 2 3.32 2 4 2 C4 5.63 4 9.26 4 13 C2.35 13.33 0.7 13.66 -1 14 C-1.02694851 12.04174127 -1.04637218 10.08337774 -1.0625 8.125 C-1.07410156 7.03445312 -1.08570313 5.94390625 -1.09765625 4.8203125 C-1 2 -1 2 0 0 Z " fill="#E1E1E1" transform="translate(12,15)"/>
<path d="M0 0 C2.97 0 5.94 0 9 0 C8.67 3.3 8.34 6.6 8 10 C5.5 8.625 5.5 8.625 3 7 C3 6.34 3 5.68 3 5 C2.01 5 1.02 5 0 5 C0 3.35 0 1.7 0 0 Z " fill="#926A08" transform="translate(1,16)"/>
<path d="M0 0 C0.33 0 0.66 0 1 0 C1 1.65 1 3.3 1 5 C1.78375 5.144375 2.5675 5.28875 3.375 5.4375 C6 6 6 6 8 7 C8.66 6.34 9.32 5.68 10 5 C10.33 7.64 10.66 10.28 11 13 C6.04032572 11.73124612 3.15309622 10.08047746 0 6 C-0.3125 2.6875 -0.3125 2.6875 0 0 Z " fill="#632015" transform="translate(0,16)"/>
<path d="M0 0 C0.99 0 1.98 0 3 0 C3 2.64 3 5.28 3 8 C1.68 7.67 0.36 7.34 -1 7 C-0.67 6.34 -0.34 5.68 0 5 C-0.66 5 -1.32 5 -2 5 C-2.33 5.99 -2.66 6.98 -3 8 C-3.66 8 -4.32 8 -5 8 C-5 5.69 -5 3.38 -5 1 C-2.525 1.495 -2.525 1.495 0 2 C0 1.34 0 0.68 0 0 Z " fill="#9A7806" transform="translate(22,1)"/>
<path d="M0 0 C0.33 1.32 0.66 2.64 1 4 C2.32 4.33 3.64 4.66 5 5 C4.67 5.99 4.34 6.98 4 8 C3.01 7.67 2.02 7.34 1 7 C0.01 7.33 -0.98 7.66 -2 8 C-2.33 5.69 -2.66 3.38 -3 1 C-2.01 0.67 -1.02 0.34 0 0 Z " fill="#9F8005" transform="translate(4,1)"/>
<path d="M0 0 C1.98 0.66 3.96 1.32 6 2 C5.67 2.99 5.34 3.98 5 5 C5 5.66 5 6.32 5 7 C3.35 7.33 1.7 7.66 0 8 C0 5.36 0 2.72 0 0 Z " fill="#9F710A" transform="translate(17,18)"/>
<path d="M0 0 C2.97 0 5.94 0 9 0 C9 1.32 9 2.64 9 4 C6.03 4 3.06 4 0 4 C0 2.68 0 1.36 0 0 Z " fill="#EDEDED" transform="translate(1,11)"/>
<path d="M0 0 C0.66 0 1.32 0 2 0 C2.33 2.97 2.66 5.94 3 9 C1.68 8.67 0.36 8.34 -1 8 C-0.67 5.36 -0.34 2.72 0 0 Z " fill="#EEEEEE" transform="translate(12,1)"/>
<path d="M0 0 C2.97 0 5.94 0 9 0 C9 1.65 9 3.3 9 5 C8.01 5.495 8.01 5.495 7 6 C7 5.34 7 4.68 7 4 C6.01 4 5.02 4 4 4 C4.33 3.34 4.66 2.68 5 2 C3.35 1.67 1.7 1.34 0 1 C0 0.67 0 0.34 0 0 Z " fill="#A33C1E" transform="translate(1,16)"/>
<path d="M0 0 C0.99 0 1.98 0 3 0 C3 3.63 3 7.26 3 11 C2.34 10.67 1.68 10.34 1 10 C1 7.36 1 4.72 1 2 C0.34 1.67 -0.32 1.34 -1 1 C-0.67 0.67 -0.34 0.34 0 0 Z " fill="#C2ABAB" transform="translate(13,17)"/>
<path d="M0 0 C1.98 0 3.96 0 6 0 C5.67 1.32 5.34 2.64 5 4 C5 3.01 5 2.02 5 1 C4.67 1.66 4.34 2.32 4 3 C3.34 3 2.68 3 2 3 C1.67 3.99 1.34 4.98 1 6 C0.67 4.02 0.34 2.04 0 0 Z " fill="#8E411B" transform="translate(10,11)"/>
<path d="M0 0 C0.66 0 1.32 0 2 0 C2 3.10359391 1.98334755 5.14829211 1 8 C0.01 8.495 0.01 8.495 -1 9 C-1.125 2.25 -1.125 2.25 0 0 Z " fill="#EEEEEE" transform="translate(12,15)"/>
<path d="M0 0 C1.32 0.33 2.64 0.66 4 1 C4.33 2.98 4.66 4.96 5 7 C2.5 5.75 2.5 5.75 0 4 C0 2.68 0 1.36 0 0 Z " fill="#A48D02" transform="translate(4,19)"/>
<path d="M0 0 C0.99 0 1.98 0 3 0 C3.33 1.32 3.66 2.64 4 4 C3.01 4.495 3.01 4.495 2 5 C1.01 4.67 0.02 4.34 -1 4 C-0.67 2.68 -0.34 1.36 0 0 Z " fill="#82560A" transform="translate(6,1)"/>
</svg>
